<svg xmlns="http://www.w3.org/2000/svg" width="811" height="97.744" viewBox="0 0 811 97.744"><defs><style>.a{fill:#fff;}</style></defs><path class="a" d="M101.571-94.5V1.867H69.632V-69.307H40.309V1.867H8.37V-94.5ZM186.65-14.928H150.03l-6.47,16.8h-33.04L152.646-94.5h31.939L226.711,1.867H193.12Zm-8.948-23.4-9.361-24.23-9.361,24.23ZM328.86-94.5V1.867H296.921V-69.307H267.6V1.867H235.659V-94.5Zm68.971,29.6q18.034,0,27.809,8.054T435.415-33.1q0,16.933-11.151,25.95T393.7,1.867H345.931V-94.5H377.87v29.6ZM391.5-20.848a11.129,11.129,0,0,0,8.122-3.1q3.166-3.1,3.166-8.6,0-9.637-11.289-9.637H377.87v21.338ZM444.226-94.5h31.939V1.867H444.226Zm61.4,97.744a17.9,17.9,0,0,1-13.01-5.025,17.182,17.182,0,0,1-5.163-12.872,16.735,16.735,0,0,1,5.163-12.734,18.174,18.174,0,0,1,13.01-4.887,18.173,18.173,0,0,1,13.01,4.887A16.735,16.735,0,0,1,523.8-14.653a17.182,17.182,0,0,1-5.163,12.872A17.9,17.9,0,0,1,505.625,3.244ZM629.389-94.5V1.867H602.681l-36.62-43.778V1.867H534.4V-94.5h26.707l36.62,43.778V-94.5Zm95.817,71.863v24.5H645.083V-94.5h78.333V-70H677.022v11.289h40.75v23.4h-40.75v12.665Zm33.453-46.669H730.437V-94.5H819.37v25.193H791.148V1.867h-32.49Z" transform="translate(-8.37 94.5)"/></svg>